<?xml version="1.0" encoding="utf-8"?>
<!-- Generator: Adobe Illustrator 17.1.0, SVG Export Plug-In . SVG Version: 6.00 Build 0)  -->
<!DOCTYPE svg PUBLIC "-//W3C//DTD SVG 1.1//EN" "http://www.w3.org/Graphics/SVG/1.1/DTD/svg11.dtd">
<svg version="1.1" id="Layer_1" xmlns="http://www.w3.org/2000/svg" xmlns:xlink="http://www.w3.org/1999/xlink" x="0px" y="0px"
	 viewBox="0 0 792 612" enable-background="new 0 0 792 612" xml:space="preserve">
<path fill="#322113" d="M299.4,235.6c0,0,0.9-3.5,1.2-5.1c0.7-3.9,3.6-21.1,4.6-25.5c1-4.8,4.7-33.1,5.1-36.7
	c0.1-1.3,1.1-10.8,1.3-14.3c0-0.4-0.1-1.2-0.1-1.2s-1-0.3-1.4-0.5c-3.1-0.8-6.4-1.6-9.4-2.6c-4.7-1.6-7.4-2.5-10.9-4.3
	c-0.7-0.4-3.6-1.9-5.1-3.1c-1.7-1.3-3.8-2.9-5.4-4.2c-3.5-2.7-5.3-4.9-8.1-8.2c-2.4-2.9-5.1-7.5-6.3-10.2c-1.5-3.4-3.6-9.9-4.4-14.2
	c-0.6-3.4-1.2-6.8-1.5-10.3c-0.3-3.2-0.4-6.9,1.8-9.2c1.4-1.4,3.6-1.5,4.5-1.5c1.2,0.1,2.5,0.8,3.1,1.9c1.2,2.3,1.1,6.4,1.3,8.5
	c0.2,2,0.7,6.1,1.2,8.2c0.6,2.5,2.1,7.5,2.9,9.9c0.7,2.3,2.9,7,3.2,7.5c1.2,2.1,3.4,5.4,5.1,7.6c1.9,2.6,3.9,5.6,9.4,9.7
	c3.3,2.5,6.1,4.4,9.8,5.7c1.8,0.6,8.1,2.5,9.9,2.9c0.5,0.1,1.6,0.1,1.6,0.1s0.8-3.5,0.8-4c0.1-1.6,1.4-9.5,1.5-10.4
	c0.8-4.9,2.3-12.2,2.5-13.3c0.7-3.8,1.7-8.6,2.3-11.5c0.6-2.6,1.6-7.1,2.5-10.1c1.6-5.5,2.8-8.9,4.3-12.1c1.3-2.8,4.3-6.2,6.1-7.9
	c2.1-2,6.1-4.9,9.7-6.3c2.9-1.1,8.5-2.3,12.2-2.1c4.3,0.2,8.1,1.2,11.3,2.6c2.9,1.3,7.3,4.2,8.4,5.1c2.1,1.7,6.1,5.9,7.8,8.7
	c2.2,4.1,3.6,10.6,3.9,11.9c0.5,2.7,0.7,8.3,0.2,11c-0.6,3.3-0.8,7.4-1.9,10.5c-1.1,3.2-2.9,7.9-4.5,11.2
	c-1.8,3.7-7.2,10.7-9.3,12.7c-3.7,3.5-10.7,8.1-15.6,9.8c-3.6,1.3-7.4,2.1-11.2,2.7c-4.9,0.8-10.3,0.8-15.2,0.4
	c-3.6-0.3-10.2-1.6-10.2-1.6s-0.5,3.8-0.7,5.8c-0.2,3-0.4,4-0.7,5.6c-0.5,4.4-2.6,20.2-3,23.7c-0.8,6.8-7,42.1-7.7,45.8
	c-0.3,1.6-1,4.8-1,4.8s4.8,5,5,5.3c2,2.3,7.3,9.5,8.2,11.1c2.1,4,6.4,9.7,7.4,11c2.7,3.3,6,6.8,9.4,9.4c3.7,2.8,7.8,5.2,12.1,6.9
	c3.3,1.3,10.2,3.1,15.2,3c4.1-0.1,5.2-0.6,8.3-2c1.7-0.8,4.5-2.4,5.8-3.4c1.9-1.3,4.5-3.7,6.2-5.5c1.4-1.5,4.8-5.7,5.7-7.2
	c0.8-1.4,3.4-4.5,5.9-4.7c2.3-0.1,5.5,2.2,6.7,3.8c1.2,1.5,1.4,5.2,0.7,7.2c-0.7,2.1-2.7,5.5-3.8,7.1c-1.2,1.9-4.6,5.2-5.8,6.3
	c-4.2,3.4-10.1,6-13.8,7c-3.7,1-11.7,2.2-14.8,2.2c-3.5,0-7-0.7-10.3-1.8c-4.9-1.6-8.5-3.5-13-5.7c-2.3-1.1-6-3.4-8.2-4.8
	c-1.9-1.2-6.2-4.6-9.6-8.2c-2.5-2.6-5.6-6.3-7.6-9.2c-1.1-1.6-5.5-8.7-6.7-10.3c-1.2-1.7-2.7-3.1-3.9-4.8c-0.8-1-2-1.8-2-1.8
	s-3.6,7.1-7.1,11.8c-1.9,2.7-6.2,7.3-8.6,9.6c-1.9,1.8-3.6,3.8-5.5,5.5c-3.8,3.6-12.8,9.8-17.5,12.3c-2.6,1.4-7.4,2.9-11.3,3.2
	c-6.6,0.4-16.2-2.3-19.9-5c-3.2-2.4-6.7-4.9-9.3-7.9c-1-1.1-2.5-3.6-3.1-5c-1-2.1-2.9-7.4-3.1-8.4c-0.4-2.1-0.5-4-0.6-6.1
	c-0.2-4.3,2-11.1,3.9-14.3c1.9-3.2,5.2-6.2,7.1-8c1.6-1.5,4.3-4.1,12.9-8.2c4.3-2,11-3.2,14.5-3.6c3.5-0.4,6-0.3,9.5-0.3
	c3.9,0.1,8.4,1.1,9.6,1.3c2.2,0.4,4.4,0.8,6.6,1.3c1,0.2,6.9,1.9,8.8,2.6c2.3,0.9,4.5,1.9,6.8,3
	C297.1,234.4,299.4,235.6,299.4,235.6z M319.5,147.5c0,0,4.8,0.8,6.6,1c2.9,0.2,7,0.4,11.2,0c5.3-0.8,8.1-1.3,12.9-2.8
	c2.3-0.7,5.4-2.3,8.1-4.1c2-1.3,3.5-2.9,5.2-4.5c1.3-1.2,4.5-4.7,5.4-6.1c1.2-1.8,3.2-5.8,4-7.8c0.5-1.5,2.2-5.8,2-11.6
	c-0.4-4-0.6-7.2-3.2-11.7c-3-4-4.9-6.4-8.4-8.2c-4.1-2-9-3.3-10.7-3.4c-2.4-0.2-5.1-0.2-7.4,0.2c-1.9,0.3-4.1,0.7-7.4,2.7
	c-3.2,2.5-5.2,5.2-6.7,8.1c-1.2,3.3-1.7,5-2.9,8.9c-0.6,2.2-1.6,6.2-2.4,8.4c-0.3,0.7-2.1,8-3,11.2c-0.5,2.1-1,4.2-1.4,6.3
	c-0.5,2.9-0.9,5.9-1.2,8.8C319.8,144.3,319.5,147.5,319.5,147.5z M295.6,245.7c0,0.1-3.1-2-4.9-2.9c-1.7-0.8-5-2.4-6.9-3
	c-1.3-0.4-3.8-1.4-5.4-1.9c-3.7-1.1-5.6-1.9-9.7-2.4c-3.4-0.4-6.2-0.7-9.7-0.7c-2.7,0-5.5,0.1-8,0.8c-7.7,2.2-14,7-19,13
	c-1.9,2.3-3.4,4.2-4,8c-0.6,3.7,0,8.7,1,11.4c0.4,1.2,1.5,3.2,2.4,4.7c1.4,2.2,3.7,3.6,6,4.7c4.3,1.7,6.8,2.4,10.4,2.7
	c3.4,0.3,7.4,0.7,10.6-0.2c6.3-1.7,12.4-6.1,15-8.1c5.5-4.3,10.3-9.4,13.2-12.4C291.9,254.3,295.6,245.7,295.6,245.7z"/>
<path d="M364.6,322.2"/>
<path d="M458.7,296.6c-0.6,0.1,0.1,1.8-0.5,1.8C457.3,298.5,458.7,297.3,458.7,296.6C458.7,296.6,458.7,296.6,458.7,296.6z"/>
<path fill="#FFFFFF" d="M507.7,398.2c-0.3,0-0.5-0.3-0.4-0.5c0-0.1,0.2-0.2,0.4-0.2c0.1,0,0.3,0.1,0.4,0.2
	C508,397.8,507.9,398.2,507.7,398.2z"/>
<path fill="#322113" d="M497.8,415c-0.5,0-0.4-0.7-0.3-0.8c0.1-0.2,0.3-0.5,0.5-0.4c0.2,0.1,0.2,0.3,0.1,0.5
	C498.1,414.5,498.2,415,497.8,415z"/>
<path fill="#322113" d="M389.6,241.2c-0.3,1.9-2.7,3.2-5.4,2.9l0,0c-2.7-0.3-4.7-2-4.4-3.9l7.3-51.5c0.3-1.9,2.7-3.2,5.4-2.9l0,0
	c2.7,0.3,4.7,2,4.4,3.9L389.6,241.2z"/>
<path fill="#322113" d="M515.8,79.8c-0.1,4.2,0,7.3-0.5,11.5c-0.3,2.7-1.6,10.4-3.4,13.2c-0.6,0.9-2.2,1.8-3,1.5
	c-1.4-0.5-3-2.5-1.9-5.5c1.5-4,2.4-7.8,2.6-10.7c0.2-2.3,0.9-8.4-0.1-12.8c-0.7-3.4-1.8-8-4.6-11.3c-1.5-1.8-5.2-3.1-7.4-3.5
	c-3-0.6-7.2-0.2-8.9,0.6c-2.2,1.1-5.1,3.5-6.4,5.6c-2.2,3.4-3.4,6.7-4,9c-0.8,2.8-2.3,8.7-2.9,11.7c-0.5,2.7-1.5,7.7-2.3,11.8
	l-10.6,66.4l43.6,0c2.8,0,5,2.2,5,4.9c0,1.4-0.6,2.6-1.5,3.5c-0.9,0.9-2.2,1.4-3.5,1.4l-45.2,0l-20.5,128.3
	c-0.4,2.3-4.1,11.3-5.5,13.2c-0.9,1.3-3.9,5.1-5.7,6.5c-2.9,2.1-5.9,4.2-11.4,4.9c-2.7,0.4-6.9,0.5-9,0.1
	c-10.6-1.8-15.8-9.8-17.7-13.1c-2.1-3.7-3-7.3-3.5-10.7c-0.5-3.1-1-8.5-0.5-11.1c0.7-4.1,1-7.2,2.2-11.3c0.8-2.6,3.4-10.1,5.9-12.5
	c0.8-0.8,2.9-1.4,3.8-1.1c1.5,0.7,3.4,3.2,1.7,6c-2.3,3.8-3.1,6.5-4.2,9.8c-0.7,2.2-2,7.9-1.9,12.9c0.1,3.3,0.1,6,4,11.3
	c1.5,2,5.7,4.3,8,5.5c3.4,1.7,8.7,1.8,10.9,1.5c4.6-0.6,6.4-0.9,8.7-2.8c3.7-3.3,4.9-7.1,6-12.1c0.5-2.1,0.1,0,0.1,0l20-125.3
	l-21.8,0c-2.8,0-5-2.2-5-4.9c0-1.4,0.6-2.6,1.5-3.5c0.9-0.9,2.2-1.4,3.6-1.4l23.4,0l11.5-71.6c0.3-1.8,0.7-3.5,1.1-5.1
	c0.2-1.6,0.5-2.9,0.7-3.9c0.9-4.7,2.5-10.4,3.8-14.5c0.6-1.9,2.6-7.6,3.8-10.4c0.6-1.4,2.4-4.9,3.7-6.5c2.1-2.5,4-5.6,8.5-7.1
	c2.3-0.7,5.8-1.4,7.6-1.3c9.2,0.4,14.5,8,15.8,11.5c1.3,3.4,2.9,7.2,3.8,10.4C514.8,71.8,515.8,77.2,515.8,79.8z"/>
<path fill="#322113" d="M619.9,529.2c-6.8,24.4-31.1,38.3-54.2,31c-22.8-7.1-34.3-31.9-29.6-56.3c0.3-1.8,0.6-3.9,1.2-6l26.1-94.9
	l-39.4,0c-2.8,0-5-2.2-5-4.9c0-1.4,0.6-2.6,1.5-3.5c0.9-0.9,2.2-1.4,3.5-1.4l42.1,0l7.6-27.5c2.1-7.4,5.6-13,7.9-12.3
	c1.2,0.3,1.8,2.3,1.8,5.3c0,2.6-0.5,5.9-1.5,9.4l-6.9,25.2l24.8,0c2.8,0,5,2.2,5,4.9c0,1.4-0.6,2.6-1.5,3.5
	c-0.9,0.9-2.2,1.4-3.6,1.4l-27.4,0l-26.7,97.2c-0.5,1.8-0.9,4-1.2,5.3c-4.5,20.1,5.7,38.7,24.4,44.6c18.6,5.8,35-4,41.7-23.3
	c4.6-13.2,3.8-23.5-2.4-30.7c-1.4-1.2-3.2-3-4.9-3.9c-6.8-3.6-13.7-3-19.1,0.5c-2.6,1.7-3.9,5.3-6.2,6.7c-1.1,0.6-4.3-0.3-4.6-2.3
	c-0.7-4.2,3.7-8.5,7.4-10.9c8.3-5.4,17.7-5.5,26.6-0.8c3.3,1.7,6,4.2,8.1,7.1c0.4,0.5,0.8,1.1,1.1,1.6c1.9,3.8,3.9,7.6,4.8,11.9
	C622.7,513.3,622,521.4,619.9,529.2z"/>
<path fill="#322113" d="M372.1,335.7c-1.6,2.6-10.2,12.7-13.4,15.6c-3.2,2.8-8,6.3-11.9,7.9c-4.6,2-7.9,3.1-12,4.6
	c-2.2,0.8-5.8,1.8-8.1,2.1c-2.5,0.4-8.3,0.6-11.5,0.5c-2.5-0.1-7.7-0.5-10.9-1.2c-3.3-0.7-7-2-10.2-2.9c-2.7-0.7-21.6-7.9-25.6-9.5
	c-4.4-1.8-11.4-5.5-14.7-6.9c-0.8-0.4-12.5-6.1-17.8-7.4c-0.1,0.9-0.2,1.8-0.5,2.7l-20,79.2l57.5,0c2.2,0,4,2.4,4,5.4
	c0,1.5-0.4,2.9-1.2,3.8c-0.7,1-1.7,1.6-2.8,1.6l-60.3-0.1l-18.3,72.3c-1.6,6.2-19.6,11.9-18,5.7l43.4-171.4c-6.2,0.9-9.7,1.5-11,1.7
	c-2.3,0.4-7.6,1.2-10.6,2.2c-3.5,1.2-11.2,4.4-15.9,6.8c-2.2,0.9-11.3,7.4-13.5,11.1c-1,1.6-1.7,3.9-3,4.9c-1.1,0.9-2.1,0.9-2.3-1.8
	c-0.2-4.4,2.5-8.7,4.3-11.9c2.1-3.8,9.8-11.3,15.6-15.1c4.5-2.9,11.9-7.1,16.9-8.8c3.3-1.1,6.7-1.8,10.1-2.5c5-1,10.1-1.5,15.2-1.1
	c7.7,0.6,20,5.6,27.1,9.1c8.1,4,16.2,7.9,24.4,11.8c5.1,2.4,16.6,6.7,26,8.2c6.3,0.6,19.2,0,23.6-0.8c6.7-1.1,15.1-3.1,19.8-5.2
	c4.6-2.1,11.3-6.4,15.1-9.9c1.7-1.5,5.6-4.7,7.7-7.8c0.5-0.7,2.4-4.1,3.2-4.2c1-0.1,2.8,0.7,3.1,1.7
	C376.4,328.2,373.4,333.5,372.1,335.7z"/>
<path d="M209.5,358.3"/>
<path fill="#322113" d="M389.2,160.7c-0.4,3,2,5.7,5.4,6l0,0c3.4,0.3,6.6-1.8,7-4.8l1-6.8c0.4-3-2-5.7-5.4-6l0,0
	c-3.4-0.3-6.6,1.8-7,4.8L389.2,160.7z"/>
<path fill="#322113" d="M486.4,415.7c-0.6,3.7,1.9,7.2,5.6,7.8l0,0c3.7,0.6,7.2-1.9,7.8-5.6l1.4-8.5c0.6-3.7-1.9-7.2-5.6-7.8l0,0
	c-3.7-0.6-7.2,1.9-7.8,5.6L486.4,415.7z"/>
<path fill="#322113" d="M520.2,272.1"/>
<path fill="#322113" d="M605.3,157.4c-3-0.1-8,5.2-7.4,8.1c3.6,18.1,20.5,32.5,18.4,54.7c-3.1,33.6-28.8,58.7-57.4,56
	c-20.6-1.9-37.5-15.1-47.1-36.7c13.3,3.2,27.6,0.2,40.4-7.1c18-10.2,24.5-30.8,16.3-43c-8.2-12.2-29.9-15.4-47.1-3.9
	c-8.3,5.6-12.6,13.1-16.4,20.5c-0.5,0.9-1.7,4.8-2,5.7c-0.7,3.3-1.5,7.4-1.6,10.6c-1.7,33.8,26.3,61.5,56.5,64.3
	c34,3.2,64.6-26.7,68.4-66.7C628.7,194.4,622.8,157.7,605.3,157.4z M524.6,191.3c14.4-9.7,27.2-7.1,34.1,3.1
	c6.9,10.2,1.7,24.9-12.7,34.6c-14.4,9.7-36.4,4-36.4,4s-1.9-10.9-1.4-14.1C510,207.6,514.2,198.3,524.6,191.3z"/>
<path fill="#322113" d="M354.5,467.7c-0.7,1.3-3.1,3.4-4.4,3.7c-2.3,0.6-4.8-3-5-4.9c-0.7-5,1.5-9.9,1.1-12.8
	c-0.4-2.2-0.2-7.1-2.5-10.8c-2.1-3.7-6.1-7-11.2-9.5c-2.9-1.4-9.7-1-13.3,0.2c-7.9,2.6-12.1,5.6-14.6,7.7c-2,1.7-4.9,4.3-7.4,8.7
	L283.5,509c-0.7,3.1-3.6,4.9-6.5,4.1c-2.4-0.7-4-3.1-4-5.7c0-0.5,0.1-1,0.2-1.4l19.6-84.3c0.7-3.1,3.6-4.9,6.5-4.1
	c2.4,0.7,4,3.1,4,5.7c0,0.5-0.1,0.9-0.2,1.4l-1.8,7.7c3.2-2,6.9-4.2,9-5.1c14.7-6.6,22.9-4.1,28.4-1.3c3,2.3,6.7,4.5,9,6.9
	c2.1,2.2,5.3,6.3,6,8.9c1,4,2.1,6.8,2.5,11.1C356.4,455.6,356.6,463.8,354.5,467.7z"/>
<path fill="#322113" d="M517.1,517.7c-1.1,0.2-4.5,0.4-4.5,0.4c-10.7,0.5-19.8-10.7-24.3-26.6c-7.2,17-18.8,29.1-30.1,28.1
	c-10.4-1-17.8-12.9-20.1-28.7c-11.9,20.4-30.4,32-46,26.8c-19.5-6.4-27.2-36.3-17.2-66.7c4.4-13.4,6.7-17.9,13.2-26
	c3.9-4.9,12.4-0.5,10.2,4.1c-4.3,9-9.3,14.7-12.9,25.4c-8.2,25-7.1,50.2,8.9,55.4c16,5.3,32.7-12.8,41-37.7
	c3.7-11.4,3.1-23.9,8.2-31.8c1.4-2.1,5.5-3.2,7.3-1.4c4.6,4.4-1,22.1-5.3,35.3c-0.1,0.3-0.2,0.7-0.3,1c-1.5,18.7,1.8,38.2,15.1,37.9
	c14.2-0.3,20.1-20.7,23.8-42.3c1.6-9.3,0.9-21.9,0.9-30.1c0-5.7,9.6-7.5,10.7-0.5c1.3,8.3,0.4,19.7-1.6,31.3
	c-0.2,1.4-1.3,6.9-1.4,8.3c-1.5,18.9,9.3,29.6,20.4,27.1l2.1-0.6C523.3,504.7,525.4,516.2,517.1,517.7z"/>
<g>
	<path d="M212.2,547.5c0.1,0.2,0.2,0.4,0.2,0.6c0,0.5-0.4,0.8-1,0.8c-0.3,0-0.5-0.2-0.7-0.4c-1.2-1.5-2.5-2.1-4.5-2.1
		c-3.3,0-5.7,2.7-5.7,6s2.4,6,5.7,6c2,0,3.3-0.7,4.5-2.1c0.2-0.2,0.4-0.4,0.7-0.4c0.5,0,1,0.3,1,0.8c0,0.2-0.1,0.4-0.2,0.6
		c-1,1.5-3.2,2.8-6,2.8c-4.4,0-7.8-3.3-7.8-7.8c0-4.4,3.3-7.8,7.8-7.8C209,544.6,211.2,546,212.2,547.5z"/>
	<path d="M224.9,560.2c-4.5,0-7.7-3.5-7.7-7.8s3.2-7.8,7.7-7.8s7.7,3.5,7.7,7.8S229.5,560.2,224.9,560.2z M224.9,546.4
		c-3.2,0-5.7,2.5-5.7,6s2.5,6,5.7,6c3.2,0,5.7-2.5,5.7-6S228.1,546.4,224.9,546.4z"/>
	<path d="M264.2,559c0,0.6-0.4,1-1,1s-1-0.4-1-1v-7.5c0-3.1-1.5-5-4.7-5c-2.9,0-5,2.1-5,5.4v7.1c0,0.6-0.4,1-1,1s-1-0.4-1-1v-7.5
		c0-3.1-1.5-5-4.7-5c-2.9,0-5,2.1-5,5.4v7.1c0,0.6-0.4,1-1,1c-0.6,0-1-0.4-1-1v-13.2c0-0.6,0.4-1,1-1c0.6,0,1,0.4,1,1v1.8
		c1.1-1.9,2.9-2.9,5.4-2.9c2.7,0,4.7,1.5,5.6,3.4c1.4-2.5,3.4-3.4,6-3.4c3.9,0,6.3,2.9,6.3,6.8V559z"/>
	<path d="M296.5,559c0,0.6-0.4,1-1,1c-0.6,0-1-0.4-1-1v-7.5c0-3.1-1.5-5-4.7-5c-2.9,0-5,2.1-5,5.4v7.1c0,0.6-0.4,1-1,1
		c-0.6,0-1-0.4-1-1v-7.5c0-3.1-1.5-5-4.7-5c-2.9,0-5,2.1-5,5.4v7.1c0,0.6-0.4,1-1,1c-0.6,0-1-0.4-1-1v-13.2c0-0.6,0.4-1,1-1
		c0.6,0,1,0.4,1,1v1.8c1.1-1.9,2.9-2.9,5.4-2.9c2.7,0,4.7,1.5,5.6,3.4c1.4-2.5,3.4-3.4,6-3.4c3.9,0,6.3,2.9,6.3,6.8V559z"/>
	<path d="M303.3,545.8c0-0.6,0.4-1,1-1s1,0.4,1,1v7.5c0,3.1,1.6,5,4.7,5c2.9,0,5.1-2.1,5.1-5.4v-7.1c0-0.6,0.4-1,1-1
		c0.6,0,1,0.4,1,1V559c0,0.6-0.4,1-1,1c-0.6,0-1-0.4-1-1v-1.8c-1.1,1.9-3.1,2.9-5.5,2.9c-3.9,0-6.3-2.9-6.3-6.8V545.8z"/>
	<path d="M338.2,559c0,0.6-0.4,1-1,1s-1-0.4-1-1v-7.5c0-3.1-1.6-5-4.7-5c-2.9,0-5.1,2.1-5.1,5.4v7.1c0,0.6-0.4,1-1,1
		c-0.6,0-1-0.4-1-1v-13.2c0-0.6,0.4-1,1-1c0.6,0,1,0.4,1,1v1.8c1.1-1.9,3.1-2.9,5.5-2.9c3.9,0,6.3,2.9,6.3,6.8V559z"/>
	<path d="M346.2,539.3c0.7,0,1.3,0.6,1.3,1.3c0,0.7-0.6,1.3-1.3,1.3c-0.7,0-1.3-0.6-1.3-1.3C344.9,539.9,345.4,539.3,346.2,539.3z
		 M346.2,560c-0.6,0-1-0.4-1-1v-13.2c0-0.6,0.4-1,1-1c0.6,0,1,0.4,1,1V559C347.2,559.6,346.7,560,346.2,560z"/>
	<path d="M361.5,545c0.4,0,0.8,0.4,0.8,0.8c0,0.5-0.4,0.8-0.8,0.8h-3.4V559c0,0.6-0.4,1-1,1s-1-0.4-1-1v-12.3h-3
		c-0.5,0-0.8-0.4-0.8-0.8c0-0.5,0.4-0.8,0.8-0.8h3v-4.7c0-0.6,0.4-1,1-1s1,0.4,1,1v4.7H361.5z"/>
	<path d="M379.4,546.1c0,0-3.3,8.1-5,12.1c-1.3,3.2-3.5,6.2-6.5,8c-0.2,0.1-0.3,0.2-0.6,0.2c-0.5,0-0.9-0.4-0.9-0.8
		c0-0.4,0.2-0.6,0.6-0.8c1.9-1.3,3.3-2.7,4.6-5l-5.8-13.5c-0.1-0.2-0.1-0.3-0.1-0.5c0-0.5,0.4-0.9,0.9-0.9c0.5,0,0.7,0.2,0.9,0.6
		l5.1,12.1l5-12.1c0.1-0.3,0.4-0.6,0.8-0.6c0.6,0,0.9,0.4,0.9,0.9C379.5,545.8,379.5,546,379.4,546.1z"/>
	<path d="M409.1,547.5c0.1,0.2,0.2,0.4,0.2,0.6c0,0.5-0.4,0.8-1,0.8c-0.3,0-0.5-0.2-0.7-0.4c-1.2-1.5-2.5-2.1-4.5-2.1
		c-3.3,0-5.7,2.7-5.7,6s2.4,6,5.7,6c2,0,3.3-0.7,4.5-2.1c0.2-0.2,0.4-0.4,0.7-0.4c0.5,0,1,0.3,1,0.8c0,0.2-0.1,0.4-0.2,0.6
		c-1,1.5-3.2,2.8-6,2.8c-4.4,0-7.8-3.3-7.8-7.8c0-4.4,3.3-7.8,7.8-7.8C405.9,544.6,408.1,546,409.1,547.5z"/>
	<path d="M429.1,559c0,0.6-0.4,1-1,1c-0.6,0-1-0.4-1-1v-7.5c0-3.1-1.6-5-4.7-5c-2.9,0-5.1,2.1-5.1,5.4v7.1c0,0.6-0.4,1-1,1
		c-0.6,0-1-0.4-1-1v-21.1c0-0.6,0.4-1,1-1c0.6,0,1,0.4,1,1v9.6c1.1-1.9,3.1-2.9,5.5-2.9c3.9,0,6.3,2.9,6.3,6.8V559z"/>
	<path d="M435.9,545.8c0-0.6,0.4-1,1-1c0.6,0,1,0.4,1,1v7.5c0,3.1,1.6,5,4.7,5c2.9,0,5.1-2.1,5.1-5.4v-7.1c0-0.6,0.4-1,1-1
		c0.6,0,1,0.4,1,1V559c0,0.6-0.4,1-1,1c-0.6,0-1-0.4-1-1v-1.8c-1.1,1.9-3.1,2.9-5.5,2.9c-3.9,0-6.3-2.9-6.3-6.8V545.8z"/>
	<path d="M463.8,546.6c-2.9,0-4.9,2.8-4.9,6.6v5.9c0,0.5-0.4,1-1,1c-0.5,0-1-0.5-1-1v-13.2c0-0.6,0.4-1,1-1c0.6,0,1,0.4,1,1v2.4
		c0.6-1.9,2.5-3.4,4.9-3.4c0.6,0,1,0.3,1,0.9C464.8,546.3,464.3,546.6,463.8,546.6z"/>
	<path d="M482,547.5c0.1,0.2,0.2,0.4,0.2,0.6c0,0.5-0.4,0.8-1,0.8c-0.3,0-0.5-0.2-0.7-0.4c-1.2-1.5-2.5-2.1-4.5-2.1
		c-3.3,0-5.7,2.7-5.7,6s2.4,6,5.7,6c2,0,3.3-0.7,4.5-2.1c0.2-0.2,0.4-0.4,0.7-0.4c0.5,0,1,0.3,1,0.8c0,0.2-0.1,0.4-0.2,0.6
		c-1,1.5-3.2,2.8-6,2.8c-4.4,0-7.8-3.3-7.8-7.8c0-4.4,3.3-7.8,7.8-7.8C478.8,544.6,481,546,482,547.5z"/>
	<path d="M502,559c0,0.6-0.4,1-1,1c-0.6,0-1-0.4-1-1v-7.5c0-3.1-1.6-5-4.7-5c-2.9,0-5.1,2.1-5.1,5.4v7.1c0,0.6-0.4,1-1,1s-1-0.4-1-1
		v-21.1c0-0.6,0.4-1,1-1s1,0.4,1,1v9.6c1.1-1.9,3.1-2.9,5.5-2.9c3.9,0,6.3,2.9,6.3,6.8V559z"/>
</g>
<g>
	<path fill="#A4B639" d="M481.7,323.1c-2.7-4.4-3.7-7.9-3.7-12.2c0-9.8,7.4-17.3,17.4-17.3c8.7,0,14.3,6.2,14.3,12.8
		c0,9.4-8.4,14.5-19,19.2c0.9,1.3,2.1,2.6,3.4,4.2l7.7,9.3c5.7-8,9.8-12.5,16-12.5c4.2,0,6.7,2.8,6.7,5.7c0,2.9-2.4,5.2-5.1,5.2
		c-2.2,0-3.9-1.2-4.6-3.4c-2.5,0.7-5.3,4.8-8.9,9.7l10.2,12l-4.8,4.2l-9.5-11.4c-5.2,5.9-12.1,11.4-21.5,11.4
		c-10.7,0-17.2-6.9-17.2-15.6C463.1,333.3,472.1,327.2,481.7,323.1z M497.7,343.8l-8.7-10.6c-1.6-2-3-3.7-4.2-5.4
		c-8.9,4.2-14.1,8.5-14.1,15.9c0,5.6,3.7,9.8,10.3,9.8C488.3,353.5,493.3,349.1,497.7,343.8z M487.6,320.9
		c9.5-4.1,14.9-8.1,14.9-14.2c0-3.7-2.9-7.2-7.7-7.2c-6.1,0-10,5.6-10,11.2C484.9,314.6,485.4,317.2,487.6,320.9z"/>
</g>
</svg>
